<svg xmlns="http://www.w3.org/2000/svg" xmlns:xlink="http://www.w3.org/1999/xlink" width="980" height="490" fill="none"><style>.B{opacity:.4}.C{fill:#fff}.D{fill:#3f3d56}</style><g clip-path="url(#A)"><path d="M207.06 0a205.968 205.968 0 0 0-77.684 15.067l-2.989 1.235A206.78 206.78 0 0 0 0 207.06V433a9.01 9.01 0 0 0 2.639 6.361A9.012 9.012 0 0 0 9 442l.179.016c173.467 31.502 342.106 47.465 501.372 47.465l7.156-.011c156.555-.477 308.994-16.44 453.083-47.447L971 442a9.01 9.01 0 0 0 9-9V9a9.012 9.012 0 0 0-2.639-6.361A9.01 9.01 0 0 0 971 0H207.06z" fill="#f5ab35"/><path d="M745.799 180.193a5.943 5.943 0 0 0-4.141 1.775 5.95 5.95 0 0 0-1.707 4.171c0 1.56.613 3.058 1.707 4.17a5.95 5.95 0 0 0 4.141 1.776h149.086a5.95 5.95 0 0 0 2.285-.414 5.96 5.96 0 0 0 3.275-3.165 5.93 5.93 0 0 0 .49-2.27 5.95 5.95 0 0 0-.415-2.284 5.964 5.964 0 0 0-1.259-1.951 5.95 5.95 0 0 0-1.91-1.32 5.94 5.94 0 0 0-2.271-.488 6.34 6.34 0 0 0-.195 0H745.799z" class="D"/><g class="C"><path d="M928.694 178.537a1.17 1.17 0 0 0-.253.38c-.059.142-.09.294-.09.447a1.17 1.17 0 0 0 .343.828l5.023 5.023h-12.386a1.17 1.17 0 0 0-1.17 1.17c0 .31.123.608.343.827a1.17 1.17 0 0 0 .827.343h12.386l-5.023 5.023a1.186 1.186 0 0 0-.343.827c0 .154.031.306.09.448a1.17 1.17 0 0 0 .253.379 1.18 1.18 0 0 0 .38.254c.142.059.294.089.447.089a1.17 1.17 0 0 0 .448-.089c.142-.059.271-.145.38-.254l7.02-7.02c.22-.219.343-.517.343-.827a1.17 1.17 0 0 0-.343-.828l-7.02-7.02a1.174 1.174 0 0 0-.828-.343 1.18 1.18 0 0 0-.447.089 1.16 1.16 0 0 0-.38.254zm-216.767 0a1.174 1.174 0 0 1 .343.827 1.17 1.17 0 0 1-.089.448 1.174 1.174 0 0 1-.254.38l-5.022 5.023h12.385a1.15 1.15 0 0 1 .83.341c.109.109.195.238.255.38a1.17 1.17 0 0 1 .089.449c0 .154-.03.306-.089.448a1.18 1.18 0 0 1-.255.38 1.167 1.167 0 0 1-.381.254 1.19 1.19 0 0 1-.449.088h-12.385l5.022 5.023a1.167 1.167 0 0 1 0 1.654 1.167 1.167 0 0 1-1.654 0l-7.021-7.02a1.17 1.17 0 0 1 0-1.655l7.021-7.02a1.16 1.16 0 0 1 .379-.254 1.185 1.185 0 0 1 .896 0 1.16 1.16 0 0 1 .379.254z"/><g class="B"><use xlink:href="#B" class="B"/><path d="M778.445 56.78a6.39 6.39 0 0 0 0-12.78 6.39 6.39 0 0 0 0 12.78zm26.624 0a6.39 6.39 0 0 0 0-12.78 6.39 6.39 0 0 0 0 12.78zm26.625 0a6.39 6.39 0 0 0 0-12.78 6.39 6.39 0 0 0 0 12.78zm26.624 0a6.39 6.39 0 0 0 0-12.78 6.39 6.39 0 0 0 0 12.78zm26.625 0a6.39 6.39 0 0 0 0-12.78 6.39 6.39 0 0 0 0 12.78zm26.624 0a6.39 6.39 0 0 0 0-12.78 6.39 6.39 0 0 0 0 12.78zM751.82 77.015a6.39 6.39 0 0 0 0-12.78 6.39 6.39 0 0 0 0 12.78zm26.625 0a6.39 6.39 0 0 0 0-12.78 6.39 6.39 0 0 0 0 12.78zm26.624 0a6.39 6.39 0 0 0 0-12.78 6.39 6.39 0 0 0 0 12.78zm26.625 0a6.39 6.39 0 0 0 0-12.78 6.39 6.39 0 0 0 0 12.78zm26.624 0a6.39 6.39 0 0 0 0-12.78 6.39 6.39 0 0 0 0 12.78zm26.625 0a6.39 6.39 0 0 0 0-12.78 6.39 6.39 0 0 0 0 12.78zm26.624 0a6.39 6.39 0 0 0 0-12.78 6.39 6.39 0 0 0 0 12.78zM751.82 97.249a6.39 6.39 0 0 0 0-12.78 6.39 6.39 0 0 0 0 12.78zm26.625 0a6.39 6.39 0 0 0 0-12.78 6.39 6.39 0 0 0 0 12.78zm26.624 0a6.39 6.39 0 0 0 0-12.78 6.39 6.39 0 0 0 0 12.78zm26.625 0a6.39 6.39 0 0 0 0-12.78 6.39 6.39 0 0 0 0 12.78zm26.624 0a6.39 6.39 0 0 0 0-12.78 6.39 6.39 0 0 0 0 12.78zm26.625 0a6.39 6.39 0 0 0 0-12.78 6.39 6.39 0 0 0 0 12.78zm26.624 0a6.39 6.39 0 0 0 0-12.78 6.39 6.39 0 0 0 0 12.78z" class="B"/><use xlink:href="#C" class="B"/><path d="M778.445 117.484a6.39 6.39 0 1 0 0-12.78 6.39 6.39 0 1 0 0 12.78zm-26.625 20.235a6.39 6.39 0 1 0 0-12.78 6.39 6.39 0 1 0 0 12.78zm26.625 0a6.39 6.39 0 1 0 0-12.78 6.39 6.39 0 1 0 0 12.78zm26.624 0a6.39 6.39 0 1 0 0-12.78 6.39 6.39 0 1 0 0 12.78zm0-20.235a6.39 6.39 0 1 0 0-12.78 6.39 6.39 0 1 0 0 12.78zm26.625 0a6.39 6.39 0 1 0 0-12.78 6.39 6.39 0 1 0 0 12.78zm26.624 0a6.39 6.39 0 1 0 0-12.78 6.39 6.39 0 1 0 0 12.78zm26.625 0a6.39 6.39 0 1 0 0-12.78 6.39 6.39 0 1 0 0 12.78zm26.624 0a6.39 6.39 0 1 0 0-12.78 6.39 6.39 0 1 0 0 12.78z" class="B"/></g></g><path d="M660.157 375.459a35.277 35.277 0 0 1-32.587-21.774 35.27 35.27 0 0 1-2.008-20.38 35.274 35.274 0 0 1 9.654-18.06 35.27 35.27 0 0 1 38.439-7.646 35.275 35.275 0 0 1 21.775 32.588 35.315 35.315 0 0 1-35.273 35.272zm0-68.545a33.274 33.274 0 0 0-18.485 5.607 33.28 33.28 0 0 0-12.255 14.933 33.27 33.27 0 0 0-1.893 19.224 33.28 33.28 0 0 0 9.106 17.036 33.275 33.275 0 0 0 36.26 7.212 33.27 33.27 0 0 0 14.932-12.254 33.275 33.275 0 0 0 5.608-18.485 33.31 33.31 0 0 0-33.273-33.273z" class="D"/><path d="M673.681 336.806h-10.143v-10.143a3.38 3.38 0 0 0-3.38-3.38 3.38 3.38 0 0 0-3.381 3.38v10.143h-10.143a3.38 3.38 0 0 0-3.38 3.38 3.38 3.38 0 0 0 3.38 3.381h10.143v10.143a3.38 3.38 0 0 0 3.381 3.38 3.38 3.38 0 0 0 3.38-3.38v-10.143h10.143a3.38 3.38 0 0 0 3.38-3.381 3.38 3.38 0 0 0-3.38-3.38z" class="C"/><g class="B C"><path d="M54.024 379.789A5.023 5.023 0 1 0 49 374.766a5.023 5.023 0 0 0 5.024 5.023zm0-20.933A5.023 5.023 0 1 0 49 353.833a5.023 5.023 0 0 0 5.024 5.023zm0-20.932a5.024 5.024 0 1 0 0-10.048 5.024 5.024 0 0 0 0 10.048zm0-20.933a5.024 5.024 0 1 0 0-10.048 5.024 5.024 0 0 0 0 10.048zm0-20.933a5.024 5.024 0 1 0 0-10.048 5.024 5.024 0 0 0 0 10.048zm0-20.933a5.024 5.024 0 1 0 0-10.048 5.024 5.024 0 0 0 0 10.048zm0-20.933a5.024 5.024 0 1 0 0-10.048 5.024 5.024 0 0 0 0 10.048z" class="B"/><use xlink:href="#D" class="B"/><path d="M69.933 358.856a5.023 5.023 0 1 0-5.024-5.023 5.023 5.023 0 0 0 5.024 5.023z" class="B"/><use xlink:href="#E" class="B"/><path d="M69.933 316.991a5.024 5.024 0 1 0 0-10.048 5.024 5.024 0 0 0 0 10.048zm0-20.933a5.024 5.024 0 1 0 0-10.048 5.024 5.024 0 0 0 0 10.048zm0-20.933a5.024 5.024 0 1 0 0-10.048 5.024 5.024 0 0 0 0 10.048zm0-20.933a5.024 5.024 0 1 0 0-10.048 5.024 5.024 0 0 0 0 10.048zm15.909 125.597a5.023 5.023 0 1 0-5.024-5.023 5.023 5.023 0 0 0 5.024 5.023zm0-20.933a5.023 5.023 0 1 0-5.024-5.023 5.023 5.023 0 0 0 5.024 5.023zm0-20.932a5.024 5.024 0 1 0 0-10.048 5.024 5.024 0 0 0 0 10.048zm0-20.933a5.024 5.024 0 1 0 0-10.048 5.024 5.024 0 0 0 0 10.048zm0-20.933a5.024 5.024 0 1 0 0-10.048 5.024 5.024 0 0 0 0 10.048zm0-20.933a5.024 5.024 0 1 0 0-10.048 5.024 5.024 0 0 0 0 10.048zm0-20.933a5.024 5.024 0 1 0 0-10.048 5.024 5.024 0 0 0 0 10.048zm15.909 125.597a5.023 5.023 0 1 0-5.024-5.023 5.023 5.023 0 0 0 5.024 5.023zm0-20.933a5.023 5.023 0 1 0-5.024-5.023 5.023 5.023 0 0 0 5.024 5.023zm15.909 20.933a5.023 5.023 0 1 0-5.024-5.023 5.023 5.023 0 0 0 5.024 5.023zm0-20.933a5.023 5.023 0 1 0-5.024-5.023 5.023 5.023 0 0 0 5.024 5.023zm0-20.932a5.024 5.024 0 1 0 0-10.048 5.024 5.024 0 0 0 0 10.048zm-15.909 0a5.024 5.024 0 1 0 0-10.048 5.024 5.024 0 0 0 0 10.048zm0-20.933a5.024 5.024 0 1 0 0-10.048 5.024 5.024 0 0 0 0 10.048zm0-20.933a5.024 5.024 0 1 0 0-10.048 5.024 5.024 0 0 0 0 10.048zm0-20.933a5.024 5.024 0 1 0 0-10.048 5.024 5.024 0 0 0 0 10.048zm0-20.933a5.024 5.024 0 1 0 0-10.048 5.024 5.024 0 0 0 0 10.048z" class="B"/></g><path d="M497.408 33.002H163.666a6.19 6.19 0 0 0-4.369 1.813 6.19 6.19 0 0 0-1.813 4.37v285.383a6.19 6.19 0 0 0 1.813 4.37 6.184 6.184 0 0 0 4.369 1.812h333.742a6.185 6.185 0 0 0 4.37-1.812 6.19 6.19 0 0 0 1.813-4.37V39.185a6.19 6.19 0 0 0-6.183-6.182zm3.705 291.566a3.719 3.719 0 0 1-3.705 3.716H163.666a3.71 3.71 0 0 1-3.704-3.716V39.185a3.71 3.71 0 0 1 3.704-3.716h333.742a3.717 3.717 0 0 1 3.705 3.716v285.383z" class="D"/><path d="m240.702 280.006-.034 1.309a25.18 25.18 0 0 1-25.141 23.861 25.18 25.18 0 0 1-25.14-23.861 24.55 24.55 0 0 1-.035-1.309 25.186 25.186 0 0 1 7.368-17.811 25.16 25.16 0 0 1 8.17-5.462 25.174 25.174 0 0 1 34.812 23.273z" class="C"/><path d="M471.475 263.219H273.663a4.197 4.197 0 0 0 0 8.394h197.812a4.196 4.196 0 0 0 2.963-7.162 4.202 4.202 0 0 0-2.963-1.232z" class="D"/><path d="M358.78 288.4h-85.117a4.194 4.194 0 0 0-2.963 1.227 4.19 4.19 0 0 0 2.963 7.155h85.117a4.19 4.19 0 0 0 2.964-7.155 4.195 4.195 0 0 0-2.964-1.227zm217.918-54.819h-333.74a8.557 8.557 0 0 1-6.042-2.507 8.56 8.56 0 0 1-2.507-6.043V78.569a8.56 8.56 0 0 1 2.507-6.042 8.557 8.557 0 0 1 6.042-2.507h333.74a8.557 8.557 0 0 1 6.042 2.507 8.56 8.56 0 0 1 2.507 6.042v146.462a8.56 8.56 0 0 1-8.549 8.55zM242.958 73.02a5.56 5.56 0 0 0-5.549 5.549v146.462a5.56 5.56 0 0 0 1.627 3.922 5.555 5.555 0 0 0 3.922 1.628h333.74a5.555 5.555 0 0 0 5.549-5.55V78.569a5.56 5.56 0 0 0-1.627-3.922 5.554 5.554 0 0 0-3.922-1.627h-333.74zm67.966 50.419a4.2 4.2 0 0 0-2.967 1.229 4.197 4.197 0 0 0 2.967 7.163h197.808c1.112 0 2.18-.442 2.966-1.229a4.2 4.2 0 0 0 1.229-2.967 4.195 4.195 0 0 0-4.195-4.196H310.924zm0 24.313a4.195 4.195 0 1 0 0 8.392h197.808a4.2 4.2 0 0 0 2.962-1.231 4.195 4.195 0 0 0 0-5.93 4.2 4.2 0 0 0-2.962-1.231H310.924zm0 24.018a4.195 4.195 0 1 0 0 8.392h85.117a4.196 4.196 0 0 0 2.963-1.232 4.2 4.2 0 0 0 1.227-2.964 4.197 4.197 0 0 0-1.227-2.965 4.19 4.19 0 0 0-2.963-1.231h-85.117zm320.8 123.863-33.52-47.307 10.851 2.261a1.5 1.5 0 0 0 .586.005 1.51 1.51 0 0 0 .543-.219 1.5 1.5 0 0 0 .418-.411c.111-.163.188-.346.229-.539a1.5 1.5 0 0 0 .005-.586 1.51 1.51 0 0 0-.219-.543 1.5 1.5 0 0 0-.411-.418 1.515 1.515 0 0 0-.539-.229l-16.171-3.366-2.182 16.371a1.48 1.48 0 0 0 .036.585 1.5 1.5 0 0 0 .258.528c.119.157.269.289.44.388a1.5 1.5 0 0 0 .555.189c.196.026.395.014.586-.037a1.5 1.5 0 0 0 .913-.701 1.52 1.52 0 0 0 .188-.556l1.463-10.993 33.523 47.312a1.51 1.51 0 0 0 .425.403c.167.104.353.175.547.208a1.48 1.48 0 0 0 1.119-.254c.161-.114.298-.259.402-.425a1.5 1.5 0 0 0 .209-.547 1.48 1.48 0 0 0-.016-.585 1.485 1.485 0 0 0-.238-.534z" class="C"/><path d="M449.666 433.321H211.409a4.412 4.412 0 0 1-4.412-4.413v-59.101a4.414 4.414 0 0 1 1.293-3.118 4.42 4.42 0 0 1 3.119-1.294h238.257a4.415 4.415 0 0 1 4.412 4.412v59.101a4.417 4.417 0 0 1-1.294 3.119 4.42 4.42 0 0 1-3.118 1.294zM211.409 367.16a2.647 2.647 0 0 0-2.647 2.647v59.101c0 .702.279 1.375.776 1.871a2.65 2.65 0 0 0 1.871.777h238.257a2.65 2.65 0 0 0 2.647-2.648v-59.101a2.65 2.65 0 0 0-.776-1.871 2.647 2.647 0 0 0-1.871-.776H211.409z" class="D"/><path d="M248.429 415.063c9.926 0 17.973-8.047 17.973-17.973s-8.047-17.973-17.973-17.973-17.973 8.047-17.973 17.973 8.047 17.973 17.973 17.973zm41.509-29.955a2.975 2.975 0 0 0-1.148.227 3 3 0 0 0-1.625 1.621 2.995 2.995 0 0 0-.228 1.148 2.99 2.99 0 0 0 .228 1.147 3 3 0 0 0 .651.973c.279.278.61.498.974.649s.754.227 1.148.226h141.215a3 3 0 0 0 2.118-.877 2.995 2.995 0 0 0 0-4.237 3 3 0 0 0-2.118-.877H289.938zm0 17.973a2.993 2.993 0 0 0-1.148.226 3 3 0 0 0-1.625 1.622 2.994 2.994 0 0 0-.228 1.147 3 3 0 0 0 .228 1.148c.151.364.372.694.651.972a3 3 0 0 0 .974.649c.364.15.754.228 1.148.227h60.765a3 3 0 0 0 2.118-.877 2.996 2.996 0 0 0-2.118-5.114h-60.765z" class="C"/><path d="M764.024 222.756h105.893a4.415 4.415 0 0 1 4.412 4.412V337.45a4.417 4.417 0 0 1-1.294 3.119 4.42 4.42 0 0 1-3.118 1.294H764.024a4.42 4.42 0 0 1-4.412-4.413V227.168a4.42 4.42 0 0 1 1.294-3.118 4.417 4.417 0 0 1 3.118-1.294zm105.893 117.342a2.65 2.65 0 0 0 1.871-.776c.496-.497.775-1.17.776-1.872V227.168a2.65 2.65 0 0 0-.776-1.871 2.647 2.647 0 0 0-1.871-.776H764.024a2.65 2.65 0 0 0-2.647 2.647V337.45a2.649 2.649 0 0 0 2.647 2.648h105.893z" class="D"/><path d="M847.353 319.12a2.99 2.99 0 0 0 2.118-.877 2.996 2.996 0 0 0-2.118-5.114h-60.765a2.996 2.996 0 0 0 0 5.991h60.765zm0-17.648a3.013 3.013 0 0 0 2.122-.876 3 3 0 0 0 .651-.972 2.995 2.995 0 0 0 0-2.295 2.99 2.99 0 0 0-.651-.973 3 3 0 0 0-.974-.649 2.993 2.993 0 0 0-1.148-.226h-60.765a2.993 2.993 0 0 0-1.148.226 3 3 0 0 0-.974.649 2.99 2.99 0 0 0-.65.973 2.987 2.987 0 0 0 0 2.295 3 3 0 0 0 .65.972 2.99 2.99 0 0 0 .974.649c.364.15.754.227 1.148.227h60.765zm-30.383-55.974c3.73 0 7.375 1.106 10.476 3.178a18.85 18.85 0 0 1 2.857 29.01 18.86 18.86 0 0 1-9.654 5.16 18.85 18.85 0 0 1-10.894-1.073 18.856 18.856 0 0 1-8.462-6.945 18.85 18.85 0 0 1-3.178-10.475 18.877 18.877 0 0 1 18.855-18.855z" class="C"/></g><defs><path id="B" d="M751.82 56.78a6.39 6.39 0 0 0 0-12.78 6.39 6.39 0 0 0 0 12.78z"/><path id="C" d="M751.82 117.484a6.39 6.39 0 1 0 0-12.78 6.39 6.39 0 1 0 0 12.78z"/><path id="D" d="M69.933 379.789a5.023 5.023 0 1 0-5.024-5.023 5.023 5.023 0 0 0 5.024 5.023z"/><path id="E" d="M69.933 337.924a5.024 5.024 0 1 0 0-10.048 5.024 5.024 0 0 0 0 10.048z"/><clipPath id="A"><path d="M0 0h980v489.48H0z" class="C"/></clipPath></defs></svg>