<svg xmlns="http://www.w3.org/2000/svg" xmlns:xlink="http://www.w3.org/1999/xlink" width="980" height="490" fill="none" xmlns:v="https://vecta.io/nano"><style><![CDATA[.B{opacity:.4}.C{fill:#fff}.D{fill:#3f3d56}]]></style><g clip-path="url(#A)"><path d="M207.06 0c-26.625-.046-53.007 5.071-77.684 15.067l-2.989 1.235A206.78 206.78 0 0 0 0 207.06V433a9.01 9.01 0 0 0 2.639 6.361C4.326 441.048 6.614 441.997 9 442l.179.016c173.467 31.502 342.106 47.465 501.372 47.465l7.156-.011c156.555-.477 308.994-16.44 453.083-47.447L971 442a9.01 9.01 0 0 0 9-9V9c-.003-2.386-.952-4.674-2.639-6.361A9.01 9.01 0 0 0 971 0H207.06z" fill="#f5ab35"/><path d="M745.799 180.193c-1.56.025-3.047.663-4.141 1.775a5.95 5.95 0 0 0-1.707 4.171c0 1.56.613 3.058 1.707 4.17a5.95 5.95 0 0 0 4.141 1.776h149.086a5.95 5.95 0 0 0 2.285-.414c.727-.286 1.391-.713 1.952-1.256s1.012-1.192 1.323-1.909a5.93 5.93 0 0 0 .49-2.27 5.95 5.95 0 0 0-.415-2.284c-.288-.727-.716-1.39-1.259-1.951a5.95 5.95 0 0 0-1.91-1.32 5.94 5.94 0 0 0-2.271-.488 6.34 6.34 0 0 0-.195 0H745.799z" class="D"/><g class="C"><path d="M928.694 178.537a1.17 1.17 0 0 0-.253.38c-.059.142-.09.294-.09.447a1.17 1.17 0 0 0 .343.828l5.023 5.023h-12.386a1.17 1.17 0 0 0-1.17 1.17c0 .31.123.608.343.827a1.17 1.17 0 0 0 .827.343h12.386l-5.023 5.023c-.108.108-.195.237-.253.379s-.09.294-.09.448.031.306.09.448a1.17 1.17 0 0 0 .253.379 1.18 1.18 0 0 0 .38.254c.142.059.294.089.447.089a1.17 1.17 0 0 0 .448-.089c.142-.059.271-.145.38-.254l7.02-7.02c.22-.219.343-.517.343-.827a1.17 1.17 0 0 0-.343-.828l-7.02-7.02c-.109-.109-.238-.195-.38-.254s-.294-.089-.448-.089a1.18 1.18 0 0 0-.447.089 1.16 1.16 0 0 0-.38.254zm-216.767 0c.109.109.195.238.254.38s.089.294.089.447a1.17 1.17 0 0 1-.089.448c-.059.142-.145.271-.254.38l-5.022 5.023h12.385a1.15 1.15 0 0 1 .83.341c.109.109.195.238.255.38a1.17 1.17 0 0 1 .089.449c0 .154-.03.306-.089.448a1.18 1.18 0 0 1-.255.38c-.109.109-.238.195-.381.254a1.19 1.19 0 0 1-.449.088h-12.385l5.022 5.023c.22.219.343.517.343.827s-.123.608-.343.827-.517.343-.827.343-.608-.123-.827-.343l-7.021-7.02a1.17 1.17 0 0 1 0-1.655l7.021-7.02a1.16 1.16 0 0 1 .379-.254c.142-.058.294-.089.448-.089s.306.031.448.089a1.16 1.16 0 0 1 .379.254h0z"/><g class="B"><use xlink:href="#B" class="B"/><path d="M778.445 56.78a6.39 6.39 0 0 0 0-12.78 6.39 6.39 0 0 0 0 12.78zm26.624 0a6.39 6.39 0 0 0 0-12.78 6.39 6.39 0 0 0 0 12.78zm26.625 0a6.39 6.39 0 0 0 0-12.78 6.39 6.39 0 0 0 0 12.78zm26.624 0a6.39 6.39 0 0 0 0-12.78 6.39 6.39 0 0 0 0 12.78zm26.625 0a6.39 6.39 0 0 0 0-12.78 6.39 6.39 0 0 0 0 12.78zm26.624 0a6.39 6.39 0 0 0 0-12.78 6.39 6.39 0 0 0 0 12.78zM751.82 77.015a6.39 6.39 0 0 0 0-12.78 6.39 6.39 0 0 0 0 12.78zm26.625 0a6.39 6.39 0 0 0 0-12.78 6.39 6.39 0 0 0 0 12.78zm26.624 0a6.39 6.39 0 0 0 0-12.78 6.39 6.39 0 0 0 0 12.78zm26.625 0a6.39 6.39 0 0 0 0-12.78 6.39 6.39 0 0 0 0 12.78zm26.624 0a6.39 6.39 0 0 0 0-12.78 6.39 6.39 0 0 0 0 12.78zm26.625 0a6.39 6.39 0 0 0 0-12.78 6.39 6.39 0 0 0 0 12.78zm26.624 0a6.39 6.39 0 0 0 0-12.78 6.39 6.39 0 0 0 0 12.78zM751.82 97.249a6.39 6.39 0 0 0 0-12.78 6.39 6.39 0 0 0 0 12.78zm26.625 0a6.39 6.39 0 0 0 0-12.78 6.39 6.39 0 0 0 0 12.78zm26.624 0a6.39 6.39 0 0 0 0-12.78 6.39 6.39 0 0 0 0 12.78zm26.625 0a6.39 6.39 0 0 0 0-12.78 6.39 6.39 0 0 0 0 12.78zm26.624 0a6.39 6.39 0 0 0 0-12.78 6.39 6.39 0 0 0 0 12.78zm26.625 0a6.39 6.39 0 0 0 0-12.78 6.39 6.39 0 0 0 0 12.78zm26.624 0a6.39 6.39 0 0 0 0-12.78 6.39 6.39 0 0 0 0 12.78z" class="B"/><use xlink:href="#C" class="B"/><path d="M778.445 117.484a6.39 6.39 0 1 0 0-12.78 6.39 6.39 0 1 0 0 12.78zm-26.625 20.235a6.39 6.39 0 1 0 0-12.78 6.39 6.39 0 1 0 0 12.78zm26.625 0a6.39 6.39 0 1 0 0-12.78 6.39 6.39 0 1 0 0 12.78zm26.624 0a6.39 6.39 0 1 0 0-12.78 6.39 6.39 0 1 0 0 12.78zm0-20.235a6.39 6.39 0 1 0 0-12.78 6.39 6.39 0 1 0 0 12.78zm26.625 0a6.39 6.39 0 1 0 0-12.78 6.39 6.39 0 1 0 0 12.78zm26.624 0a6.39 6.39 0 1 0 0-12.78 6.39 6.39 0 1 0 0 12.78zm26.625 0a6.39 6.39 0 1 0 0-12.78 6.39 6.39 0 1 0 0 12.78zm26.624 0a6.39 6.39 0 1 0 0-12.78 6.39 6.39 0 1 0 0 12.78z" class="B"/></g></g><path d="M660.157 375.459c-6.976 0-13.796-2.069-19.596-5.944s-10.322-9.385-12.991-15.83a35.27 35.27 0 0 1-2.008-20.38c1.361-6.842 4.721-13.127 9.654-18.06a35.27 35.27 0 0 1 38.439-7.646c6.446 2.67 11.954 7.191 15.83 12.991s5.945 12.62 5.945 19.597c-.011 9.351-3.731 18.317-10.343 24.929s-15.578 10.332-24.93 10.343h0zm0-68.545c-6.58 0-13.013 1.951-18.485 5.607a33.28 33.28 0 0 0-12.255 14.933 33.27 33.27 0 0 0-1.893 19.224 33.28 33.28 0 0 0 9.106 17.036c4.653 4.653 10.582 7.822 17.036 9.106s13.144.625 19.224-1.894a33.27 33.27 0 0 0 14.932-12.254c3.656-5.472 5.608-11.905 5.608-18.485a33.31 33.31 0 0 0-33.273-33.273h0z" class="D"/><path d="M673.681 336.806h-10.143v-10.143a3.38 3.38 0 0 0-3.38-3.38 3.38 3.38 0 0 0-3.381 3.38v10.143h-10.143a3.38 3.38 0 0 0-3.38 3.38 3.38 3.38 0 0 0 3.38 3.381h10.143v10.143a3.38 3.38 0 0 0 3.381 3.38 3.38 3.38 0 0 0 3.38-3.38v-10.143h10.143a3.38 3.38 0 0 0 3.38-3.381 3.38 3.38 0 0 0-3.38-3.38h0z" class="C"/><g class="B C"><path d="M54.024 379.789c2.775 0 5.024-2.249 5.024-5.023s-2.249-5.024-5.024-5.024S49 371.991 49 374.766s2.249 5.023 5.024 5.023zm0-20.933c2.775 0 5.024-2.249 5.024-5.023s-2.249-5.024-5.024-5.024S49 351.058 49 353.833s2.249 5.023 5.024 5.023zm0-20.932c2.775 0 5.024-2.25 5.024-5.024s-2.249-5.024-5.024-5.024S49 330.125 49 332.9s2.249 5.024 5.024 5.024zm0-20.933c2.775 0 5.024-2.25 5.024-5.024s-2.249-5.024-5.024-5.024S49 309.192 49 311.967s2.249 5.024 5.024 5.024zm0-20.933c2.775 0 5.024-2.25 5.024-5.024s-2.249-5.024-5.024-5.024S49 288.259 49 291.034s2.249 5.024 5.024 5.024zm0-20.933c2.775 0 5.024-2.25 5.024-5.024s-2.249-5.024-5.024-5.024S49 267.326 49 270.101s2.249 5.024 5.024 5.024zm0-20.933c2.775 0 5.024-2.25 5.024-5.024s-2.249-5.024-5.024-5.024S49 246.393 49 249.168s2.249 5.024 5.024 5.024z" class="B"/><use xlink:href="#D" class="B"/><path d="M69.933 358.856c2.775 0 5.024-2.249 5.024-5.023s-2.249-5.024-5.024-5.024-5.024 2.249-5.024 5.024 2.249 5.023 5.024 5.023z" class="B"/><use xlink:href="#E" class="B"/><path d="M69.933 316.991c2.775 0 5.024-2.25 5.024-5.024s-2.249-5.024-5.024-5.024-5.024 2.249-5.024 5.024 2.249 5.024 5.024 5.024zm0-20.933c2.775 0 5.024-2.25 5.024-5.024s-2.249-5.024-5.024-5.024-5.024 2.249-5.024 5.024 2.249 5.024 5.024 5.024zm0-20.933c2.775 0 5.024-2.25 5.024-5.024s-2.249-5.024-5.024-5.024-5.024 2.249-5.024 5.024 2.249 5.024 5.024 5.024zm0-20.933c2.775 0 5.024-2.25 5.024-5.024s-2.249-5.024-5.024-5.024-5.024 2.249-5.024 5.024 2.249 5.024 5.024 5.024zm15.909 125.597c2.775 0 5.024-2.249 5.024-5.023s-2.249-5.024-5.024-5.024-5.024 2.249-5.024 5.024 2.249 5.023 5.024 5.023zm0-20.933c2.775 0 5.024-2.249 5.024-5.023s-2.249-5.024-5.024-5.024-5.024 2.249-5.024 5.024 2.249 5.023 5.024 5.023zm0-20.932c2.775 0 5.024-2.25 5.024-5.024s-2.249-5.024-5.024-5.024-5.024 2.249-5.024 5.024 2.249 5.024 5.024 5.024zm0-20.933c2.775 0 5.024-2.25 5.024-5.024s-2.249-5.024-5.024-5.024-5.024 2.249-5.024 5.024 2.249 5.024 5.024 5.024zm0-20.933c2.775 0 5.024-2.25 5.024-5.024s-2.249-5.024-5.024-5.024-5.024 2.249-5.024 5.024 2.249 5.024 5.024 5.024zm0-20.933c2.775 0 5.024-2.25 5.024-5.024s-2.249-5.024-5.024-5.024-5.024 2.249-5.024 5.024 2.249 5.024 5.024 5.024zm0-20.933c2.775 0 5.024-2.25 5.024-5.024s-2.249-5.024-5.024-5.024-5.024 2.249-5.024 5.024 2.249 5.024 5.024 5.024zm15.909 125.597c2.775 0 5.024-2.249 5.024-5.023s-2.249-5.024-5.024-5.024-5.024 2.249-5.024 5.024 2.249 5.023 5.024 5.023zm0-20.933c2.775 0 5.024-2.249 5.024-5.023s-2.249-5.024-5.024-5.024-5.024 2.249-5.024 5.024 2.249 5.023 5.024 5.023zm15.909 20.933c2.775 0 5.024-2.249 5.024-5.023s-2.249-5.024-5.024-5.024-5.024 2.249-5.024 5.024 2.249 5.023 5.024 5.023zm0-20.933c2.775 0 5.024-2.249 5.024-5.023s-2.249-5.024-5.024-5.024-5.024 2.249-5.024 5.024 2.249 5.023 5.024 5.023zm0-20.932c2.775 0 5.024-2.25 5.024-5.024s-2.249-5.024-5.024-5.024-5.024 2.249-5.024 5.024 2.249 5.024 5.024 5.024zm-15.909 0c2.775 0 5.024-2.25 5.024-5.024s-2.249-5.024-5.024-5.024-5.024 2.249-5.024 5.024 2.249 5.024 5.024 5.024zm0-20.933c2.775 0 5.024-2.25 5.024-5.024s-2.249-5.024-5.024-5.024-5.024 2.249-5.024 5.024 2.249 5.024 5.024 5.024zm0-20.933c2.775 0 5.024-2.25 5.024-5.024s-2.249-5.024-5.024-5.024-5.024 2.249-5.024 5.024 2.249 5.024 5.024 5.024zm0-20.933c2.775 0 5.024-2.25 5.024-5.024s-2.249-5.024-5.024-5.024-5.024 2.249-5.024 5.024 2.249 5.024 5.024 5.024zm0-20.933c2.775 0 5.024-2.25 5.024-5.024s-2.249-5.024-5.024-5.024-5.024 2.249-5.024 5.024 2.249 5.024 5.024 5.024z" class="B"/></g><path d="M497.408 33.002H163.666c-1.639.002-3.21.654-4.369 1.813a6.19 6.19 0 0 0-1.813 4.37v285.383a6.19 6.19 0 0 0 1.813 4.37c1.159 1.159 2.73 1.811 4.369 1.812h333.742c1.64-.001 3.211-.653 4.37-1.812a6.19 6.19 0 0 0 1.813-4.37V39.185a6.19 6.19 0 0 0-6.183-6.182zm3.705 291.566c0 .983-.39 1.927-1.085 2.623s-1.636 1.09-2.62 1.093H163.666a3.71 3.71 0 0 1-3.704-3.716V39.185a3.71 3.71 0 0 1 3.704-3.716h333.742c.984.003 1.926.397 2.62 1.093s1.085 1.64 1.085 2.623v285.383z" class="D"/><path d="M240.702 280.006l-.034 1.309a25.18 25.18 0 0 1-25.141 23.861 25.18 25.18 0 0 1-25.14-23.861 24.55 24.55 0 0 1-.035-1.309c-.002-3.307.648-6.582 1.912-9.639s3.118-5.833 5.456-8.172a25.16 25.16 0 0 1 8.17-5.462c3.055-1.266 6.33-1.918 9.637-1.918s6.583.652 9.638 1.918 5.832 3.122 8.169 5.462 4.192 5.116 5.457 8.172 1.914 6.332 1.911 9.639z" class="C"/><path d="M471.475 263.219H273.663c-1.112.002-2.177.445-2.963 1.232s-1.227 1.853-1.227 2.965.441 2.178 1.227 2.965 1.851 1.23 2.963 1.232h197.812c1.112-.002 2.178-.445 2.963-1.232s1.227-1.853 1.227-2.965-.441-2.179-1.227-2.965-1.851-1.23-2.963-1.232h0z" class="D"/><g class="C"><path d="M358.78 288.4h-85.117c-1.111 0-2.177.442-2.963 1.227a4.19 4.19 0 0 0 2.963 7.155h85.117a4.19 4.19 0 0 0 2.964-7.155c-.786-.785-1.852-1.227-2.964-1.227zm217.918-54.819h-333.74c-2.267-.003-4.44-.904-6.042-2.507a8.56 8.56 0 0 1-2.507-6.043V78.569a8.56 8.56 0 0 1 2.507-6.042c1.602-1.603 3.775-2.504 6.042-2.507h333.74c2.267.003 4.44.904 6.042 2.507a8.56 8.56 0 0 1 2.507 6.042v146.462a8.56 8.56 0 0 1-8.549 8.55h0zM242.958 73.02a5.56 5.56 0 0 0-5.549 5.549v146.462a5.56 5.56 0 0 0 1.627 3.922c1.04 1.041 2.451 1.626 3.922 1.628h333.74c1.471-.002 2.882-.587 3.922-1.628s1.626-2.451 1.627-3.922V78.569a5.56 5.56 0 0 0-1.627-3.922c-1.04-1.04-2.451-1.626-3.922-1.627h-333.74zm67.966 50.419a4.2 4.2 0 0 0-2.967 1.229c-.787.787-1.229 1.855-1.229 2.967s.442 2.18 1.229 2.967 1.854 1.229 2.967 1.229h197.808c1.112 0 2.18-.442 2.966-1.229a4.2 4.2 0 0 0 1.229-2.967c0-1.113-.442-2.18-1.229-2.967s-1.854-1.229-2.966-1.229H310.924zm0 24.313c-1.113 0-2.18.442-2.967 1.229s-1.229 1.854-1.229 2.967.442 2.18 1.229 2.967 1.854 1.229 2.967 1.229h197.808a4.2 4.2 0 0 0 2.962-1.231c.786-.787 1.227-1.853 1.227-2.965s-.441-2.178-1.227-2.965a4.2 4.2 0 0 0-2.962-1.231H310.924zm0 24.018c-1.113 0-2.18.442-2.967 1.229s-1.229 1.854-1.229 2.967.442 2.18 1.229 2.967 1.854 1.229 2.967 1.229h85.117c1.112-.002 2.178-.445 2.963-1.232a4.2 4.2 0 0 0 1.227-2.964c0-1.111-.441-2.178-1.227-2.965a4.19 4.19 0 0 0-2.963-1.231h-85.117zm320.8 123.863l-33.52-47.307 10.851 2.261a1.5 1.5 0 0 0 .586.005 1.51 1.51 0 0 0 .543-.219 1.5 1.5 0 0 0 .418-.411c.111-.163.188-.346.229-.539a1.5 1.5 0 0 0 .005-.586 1.51 1.51 0 0 0-.219-.543 1.5 1.5 0 0 0-.411-.418c-.163-.111-.346-.188-.539-.229l-16.171-3.366-2.182 16.371a1.48 1.48 0 0 0 .036.585 1.5 1.5 0 0 0 .258.528c.119.157.269.289.44.388a1.5 1.5 0 0 0 .555.189c.196.026.395.014.586-.037a1.5 1.5 0 0 0 .913-.701 1.52 1.52 0 0 0 .188-.556l1.463-10.993 33.523 47.312a1.51 1.51 0 0 0 .425.403c.167.104.353.175.547.208a1.48 1.48 0 0 0 1.119-.254c.161-.114.298-.259.402-.425a1.5 1.5 0 0 0 .209-.547 1.48 1.48 0 0 0-.016-.585c-.043-.192-.124-.373-.238-.534h0z"/></g><path d="M449.666 433.321H211.409c-1.17-.002-2.291-.467-3.119-1.294s-1.292-1.949-1.293-3.119v-59.101c.001-1.17.466-2.291 1.293-3.118a4.42 4.42 0 0 1 3.119-1.294h238.257c1.17.001 2.291.467 3.118 1.294s1.293 1.948 1.294 3.118v59.101c-.001 1.17-.467 2.292-1.294 3.119a4.42 4.42 0 0 1-3.118 1.294h0zM211.409 367.16c-.702 0-1.375.28-1.871.776s-.776 1.169-.776 1.871v59.101c0 .702.279 1.375.776 1.871a2.65 2.65 0 0 0 1.871.777h238.257a2.65 2.65 0 0 0 2.647-2.648v-59.101a2.65 2.65 0 0 0-.776-1.871c-.496-.496-1.169-.776-1.871-.776H211.409z" class="D"/><g class="C"><path d="M248.429 415.063c9.926 0 17.973-8.047 17.973-17.973s-8.047-17.973-17.973-17.973-17.973 8.047-17.973 17.973 8.047 17.973 17.973 17.973zm41.509-29.955c-.394-.001-.784.076-1.148.227a3 3 0 0 0-1.625 1.621c-.151.364-.228.754-.228 1.148a2.99 2.99 0 0 0 .228 1.147 3 3 0 0 0 .651.973c.279.278.61.498.974.649s.754.227 1.148.226h141.215a3 3 0 0 0 2.118-.877c.562-.562.877-1.324.877-2.118s-.315-1.557-.877-2.119a3 3 0 0 0-2.118-.877H289.938zm0 17.973c-.394-.001-.784.076-1.148.226a3 3 0 0 0-1.625 1.622c-.151.364-.228.754-.228 1.147a3 3 0 0 0 .228 1.148c.151.364.372.694.651.972a3 3 0 0 0 .974.649c.364.15.754.228 1.148.227h60.765a3 3 0 0 0 2.118-.877c.562-.562.877-1.324.877-2.119s-.315-1.556-.877-2.118-1.324-.877-2.118-.877h-60.765z"/></g><path d="M764.024 222.756h105.893c1.17.001 2.291.467 3.118 1.294s1.293 1.948 1.294 3.118V337.45c-.001 1.17-.467 2.292-1.294 3.119a4.42 4.42 0 0 1-3.118 1.294H764.024a4.42 4.42 0 0 1-4.412-4.413V227.168a4.42 4.42 0 0 1 1.294-3.118c.827-.827 1.949-1.293 3.118-1.294h0zm105.893 117.342a2.65 2.65 0 0 0 1.871-.776c.496-.497.775-1.17.776-1.872V227.168a2.65 2.65 0 0 0-.776-1.871c-.496-.496-1.169-.776-1.871-.776H764.024a2.65 2.65 0 0 0-2.647 2.647V337.45c.001.702.28 1.375.776 1.872s1.17.775 1.871.776h105.893z" class="D"/><g class="C"><path d="M847.353 319.12a2.99 2.99 0 0 0 2.118-.877c.562-.562.878-1.324.878-2.118s-.316-1.556-.878-2.118-1.323-.878-2.118-.878h-60.765c-.794 0-1.556.316-2.118.878s-.877 1.323-.877 2.118.315 1.556.877 2.118 1.324.877 2.118.877h60.765zm0-17.648c.394 0 .784-.077 1.148-.227s.695-.37.974-.649a3 3 0 0 0 .651-.972c.151-.364.228-.754.228-1.148s-.077-.784-.228-1.147a2.99 2.99 0 0 0-.651-.973 3 3 0 0 0-.974-.649c-.364-.15-.754-.227-1.148-.226h-60.765c-.394-.001-.784.076-1.148.226a3 3 0 0 0-.974.649 2.99 2.99 0 0 0-.65.973c-.151.363-.229.753-.229 1.147s.078.784.229 1.148a3 3 0 0 0 .65.972 2.99 2.99 0 0 0 .974.649c.364.15.754.227 1.148.227h60.765zm-30.383-55.974c3.73 0 7.375 1.106 10.476 3.178a18.85 18.85 0 0 1 2.857 29.01 18.86 18.86 0 0 1-9.654 5.16 18.85 18.85 0 0 1-10.894-1.073c-3.445-1.427-6.39-3.844-8.462-6.945a18.85 18.85 0 0 1-3.178-10.475c.006-4.999 1.994-9.791 5.529-13.326s8.327-5.523 13.326-5.529z"/></g></g><defs><clipPath id="A"><path d="M0 0h980v489.48H0z" class="C"/></clipPath><path id="B" d="M751.82 56.78a6.39 6.39 0 0 0 0-12.78 6.39 6.39 0 0 0 0 12.78z"/><path id="C" d="M751.82 117.484a6.39 6.39 0 1 0 0-12.78 6.39 6.39 0 1 0 0 12.78z"/><path id="D" d="M69.933 379.789c2.775 0 5.024-2.249 5.024-5.023s-2.249-5.024-5.024-5.024-5.024 2.249-5.024 5.024 2.249 5.023 5.024 5.023z"/><path id="E" d="M69.933 337.924c2.775 0 5.024-2.25 5.024-5.024s-2.249-5.024-5.024-5.024-5.024 2.249-5.024 5.024 2.249 5.024 5.024 5.024z"/></defs></svg>