<svg width="570" height="658" fill="none" xmlns="http://www.w3.org/2000/svg"><path d="M380.5 322H193.31a17.654 17.654 0 0 1-11.578-4.373l-77.103-68.002A14.472 14.472 0 0 0 95.04 246H28.5V16.5A16.518 16.518 0 0 1 45 0h319a16.518 16.518 0 0 1 16.5 16.5V322Z" fill="#E6E6E6"/><path d="M105 106.5c19.33 0 35-15.67 35-35s-15.67-35-35-35-35 15.67-35 35 15.67 35 35 35ZM241 52.75h-65a4.5 4.5 0 1 0 0 9h65a4.501 4.501 0 0 0 0-9ZM335.36 81.25H175.14c-2.01 0-3.64 2.02-3.64 4.5s1.63 4.5 3.64 4.5h160.22c2.01 0 3.64-2.02 3.64-4.5s-1.63-4.5-3.64-4.5ZM322.77 141.5H86.23c-1.92 0-3.48 2.02-3.48 4.5s1.56 4.5 3.48 4.5h236.54c1.92 0 3.48-2.02 3.48-4.5s-1.56-4.5-3.48-4.5ZM322.77 169.5H86.23c-1.92 0-3.48 2.02-3.48 4.5s1.56 4.5 3.48 4.5h236.54c1.92 0 3.48-2.02 3.48-4.5s-1.56-4.5-3.48-4.5ZM322.77 197.5H86.23c-1.92 0-3.48 2.02-3.48 4.5s1.56 4.5 3.48 4.5h236.54c1.92 0 3.48-2.02 3.48-4.5s-1.56-4.5-3.48-4.5ZM322.77 225.5H86.23c-1.92 0-3.48 2.02-3.48 4.5s1.56 4.5 3.48 4.5h236.54c1.92 0 3.48-2.02 3.48-4.5s-1.56-4.5-3.48-4.5Z" fill="#fff"/><path d="M535.5 322H193.31c-3.407.006-6.74-.99-9.585-2.863l-.225-.148V85.5A16.52 16.52 0 0 1 200 69h319a16.521 16.521 0 0 1 16.5 16.5V322Z" fill="#F9A826"/><path d="M260 175.5c19.33 0 35-15.67 35-35s-15.67-35-35-35-35 15.67-35 35 15.67 35 35 35ZM396 121.75h-65a4.5 4.5 0 0 0 0 9h65a4.5 4.5 0 0 0 0-9ZM490.36 150.25H330.14c-2.01 0-3.64 2.02-3.64 4.5s1.63 4.5 3.64 4.5h160.22c2.01 0 3.64-2.02 3.64-4.5s-1.63-4.5-3.64-4.5ZM477.77 210.5H241.23c-1.92 0-3.48 2.02-3.48 4.5s1.56 4.5 3.48 4.5h236.54c1.92 0 3.48-2.02 3.48-4.5s-1.56-4.5-3.48-4.5ZM477.77 238.5H241.23c-1.92 0-3.48 2.02-3.48 4.5s1.56 4.5 3.48 4.5h236.54c1.92 0 3.48-2.02 3.48-4.5s-1.56-4.5-3.48-4.5ZM477.77 266.5H241.23c-1.92 0-3.48 2.02-3.48 4.5s1.56 4.5 3.48 4.5h236.54c1.92 0 3.48-2.02 3.48-4.5s-1.56-4.5-3.48-4.5ZM477.77 294.5H241.23c-1.92 0-3.48 2.02-3.48 4.5s1.56 4.5 3.48 4.5h236.54c1.92 0 3.48-2.02 3.48-4.5s-1.56-4.5-3.48-4.5Z" fill="#fff"/><path d="M0 259c0-13.255 10.745-24 24-24h75.835a24 24 0 0 1 15.997 6.109l71.336 63.782A24 24 0 0 0 203.165 311H546c13.255 0 24 10.745 24 24v299c0 13.255-10.745 24-24 24H24c-13.255 0-24-10.745-24-24V259Z" fill="#CAD5E2"/><path d="M432 597.5H138a15.015 15.015 0 0 1-15-15v-162a15.015 15.015 0 0 1 15-15h294a15.015 15.015 0 0 1 15 15v162a15.015 15.015 0 0 1-15 15Zm-294-190a13.015 13.015 0 0 0-13 13v162a13.015 13.015 0 0 0 13 13h294a13.015 13.015 0 0 0 13-13v-162a13.015 13.015 0 0 0-13-13H138Z" fill="#fff"/><path d="M185.5 500.5c19.33 0 35-15.67 35-35s-15.67-35-35-35-35 15.67-35 35 15.67 35 35 35ZM321.5 446.75h-65a4.499 4.499 0 1 0 0 9h65a4.5 4.5 0 0 0 0-9ZM415.86 475.25H255.64c-2.01 0-3.64 2.02-3.64 4.5s1.63 4.5 3.64 4.5h160.22c2.01 0 3.64-2.02 3.64-4.5s-1.63-4.5-3.64-4.5ZM403.27 535.5H166.73c-1.92 0-3.48 2.02-3.48 4.5s1.56 4.5 3.48 4.5h236.54c1.92 0 3.48-2.02 3.48-4.5s-1.56-4.5-3.48-4.5ZM403.27 563.5H166.73c-1.92 0-3.48 2.02-3.48 4.5s1.56 4.5 3.48 4.5h236.54c1.92 0 3.48-2.02 3.48-4.5s-1.56-4.5-3.48-4.5Z" fill="#fff"/></svg>